<?xml version="1.0" encoding="utf-8"?>
<!DOCTYPE svg PUBLIC "-//W3C//DTD SVG 1.0//EN" "http://www.w3.org/TR/2001/REC-SVG-20010904/DTD/svg10.dtd">
<svg version="1.0" xmlns="http://www.w3.org/2000/svg" width="296px" height="558px" viewBox="0 0 296 558" preserveAspectRatio="xMidYMid meet">
 <g fill="#f9d5cf">
  <path d="M21.52 517.44 c-2.90 -6.88 -2.86 -21.96 0.04 -33.10 3.70 -14.28 13.11 -30.61 26.95 -46.77 6.52 -7.64 26.95 -27.47 29.52 -28.72 0.32 -0.16 1.05 -0.52 1.61 -0.84 0.56 -0.32 1.61 -0.60 2.33 -0.60 l1.29 0 0 2.45 c0 2.29 -0.20 2.82 -4.02 10.05 -2.25 4.22 -6.68 12.47 -9.93 18.38 -3.22 5.91 -8.45 15.52 -11.58 21.40 -3.14 5.87 -8.61 15.64 -12.15 21.72 -6.56 11.34 -12.87 22.72 -17.70 31.97 -2.73 5.19 -2.73 5.23 -4.26 5.35 -1.41 0.12 -1.57 0.04 -2.09 -1.29z m59.84 -108.55 c0.52 -0.20 0.68 -0.04 0.72 0.84 0 1.05 0.04 1.05 0.44 0.20 0.48 -0.97 0.20 -2.13 -0.48 -2.13 -0.24 0 -1.13 0.68 -1.93 1.53 -0.84 0.80 -1.05 1.13 -0.48 0.64 0.56 -0.48 1.33 -0.97 1.73 -1.09z"/>
  <path d="M111.64 373.42 c-0.16 -0.56 -0.52 -1.01 -0.84 -1.01 -0.64 0 -0.80 -1.81 -0.36 -3.50 0.20 -0.76 0.52 -0.93 1.97 -0.93 1.61 0 1.73 0.08 1.97 1.25 0.12 0.68 0.24 2.13 0.24 3.22 l0 1.97 -1.37 0 c-1.13 0 -1.41 -0.16 -1.61 -1.01z"/>
  <path d="M189.99 195.98 c-0.93 -4.18 -2.17 -6.52 -4.79 -8.93 -2.90 -2.69 -4.91 -3.38 -9.97 -3.58 l-4.38 -0.16 -1.21 -1.69 c-1.61 -2.13 -4.06 -7.44 -4.87 -10.50 -2.17 -8.04 -1.69 -18.14 1.25 -25.70 2.98 -7.64 8.61 -13.03 16.57 -15.93 8.61 -3.18 17.66 -2.41 25.22 2.05 3.02 1.81 8.69 7.48 11.10 11.10 5.99 9.05 8.28 16.85 7.80 26.62 -0.36 8.16 -2.86 13.88 -8.41 19.42 -2.45 2.45 -3.86 3.46 -6.84 4.91 -5.43 2.69 -8.93 3.46 -15.64 3.46 l-5.59 0 -0.24 -1.09z m5.43 -8.73 c0.72 -0.80 0.84 -1.13 0.48 -1.77 -0.60 -1.13 -1.29 -1.29 -2.33 -0.56 -1.09 0.68 -1.17 1.57 -0.24 2.57 0.84 0.93 1.01 0.93 2.09 -0.24z m-6.39 -7.28 c0 -0.28 -0.36 -0.80 -0.80 -1.21 -0.80 -0.72 -0.84 -0.72 -1.69 0.12 l-0.88 0.88 0.97 1.01 c0.88 0.93 1.01 0.97 1.69 0.32 0.40 -0.36 0.72 -0.84 0.72 -1.13z m12.71 -0.97 c4.02 -2.45 6.52 -9.93 6.07 -18.14 -0.56 -9.65 -3.94 -15.20 -9.21 -14.96 -3.22 0.12 -5.27 1.61 -6.60 4.71 -1.05 2.37 -1.25 10.58 -0.40 15.85 1.09 6.88 2.65 10.22 5.87 12.43 1.61 1.09 2.61 1.13 4.26 0.12z m-16.77 -7.16 c0.76 -0.93 0.80 -1.17 0.28 -1.89 -0.28 -0.48 -0.97 -0.84 -1.45 -0.84 -0.48 0 -1.17 0.36 -1.45 0.84 -0.52 0.72 -0.48 0.97 0.28 1.89 0.44 0.60 0.97 1.09 1.17 1.09 0.20 0 0.72 -0.48 1.17 -1.09z"/>
 </g>
 <g fill="#f6b4aa">
  <path d="M121.05 428.27 c-18.30 -2.05 -31.57 -9.53 -37.24 -21.03 -2.17 -4.38 -2.98 -7.96 -2.98 -13.19 0 -3.90 0 -3.98 1.77 -7.12 0.97 -1.73 2.69 -5.23 3.86 -7.72 1.17 -2.53 2.29 -4.83 2.49 -5.07 0.24 -0.28 1.09 -0.52 1.93 -0.52 l1.49 0 0.20 7.80 c0.16 6.56 0.32 8 0.97 9.33 1.05 2.13 2.45 2.61 4.10 1.41 1.57 -1.09 5.59 -7.08 7.92 -11.70 1.93 -3.90 4.63 -10.34 4.63 -11.14 0 -0.68 2.57 -0.68 3.10 0 0.60 0.72 1.61 4.06 2.33 7.52 0.72 3.62 1.81 5.51 3.30 5.87 0.93 0.24 1.29 0.04 2.41 -1.25 2.86 -3.34 7.80 -14.20 11.78 -25.94 l2.65 -7.84 2.05 -0.12 2.05 -0.12 0.68 2.29 c0.60 2.13 2.41 4.58 3.34 4.58 2.17 0 5.67 -6.96 9.65 -19.30 9.89 -30.61 10.94 -60.89 2.86 -84.34 -3.14 -9.09 -7.20 -16.05 -12.75 -21.92 -4.06 -4.26 -7.12 -6.52 -11.78 -8.77 -6.64 -3.18 -11.98 -3.86 -18.54 -2.41 -7.52 1.65 -12.39 4.38 -18.82 10.70 -3.70 3.62 -4.46 4.18 -5.63 4.18 l-1.33 0 0.28 -4.99 c0.56 -10.58 3.42 -29.20 5.71 -36.96 0.16 -0.56 -0.48 -1.01 -3.22 -2.25 -1.89 -0.88 -5.55 -2.82 -8.16 -4.30 -15.32 -8.77 -25.86 -18.26 -30 -27.11 -1.41 -2.94 -1.65 -3.82 -1.65 -6.23 l-0.04 -2.82 1.81 -0.12 c1.65 -0.12 2.05 0.08 4.22 1.77 8.37 6.56 18.22 11.26 27.75 13.23 3.90 0.80 13.03 1.29 14.04 0.72 0.60 -0.32 0.08 -0.72 -3.02 -2.33 -12.15 -6.23 -23.13 -14.12 -31.93 -22.92 -11.10 -11.10 -16.09 -20.91 -15.81 -31.09 l0.12 -3.90 2.09 -0.12 c2.01 -0.12 2.17 -0.04 6.19 2.94 16.41 12.23 33.10 20.11 47.62 22.52 1.57 0.28 1.53 0.24 -2.01 -2.45 -4.58 -3.46 -11.54 -10.22 -15.08 -14.64 -7.12 -8.93 -12.27 -19.47 -14.72 -30.16 -1.17 -5.15 -2.01 -14.12 -1.49 -16.09 0.36 -1.33 0.48 -1.41 2.21 -1.53 l1.85 -0.12 3.02 4.14 c8.77 12.02 20.23 21.68 33.46 28.07 5.55 2.69 11.70 5.11 12.07 4.75 0.08 -0.08 -1.21 -1.77 -2.86 -3.78 -11.70 -13.75 -23 -33.94 -27.55 -49.11 -4.26 -14.20 -4.71 -30.89 -1.05 -38.33 l0.88 -1.81 2.21 0 2.21 0 1.49 5.63 c2.13 8.08 4.30 13.88 8.37 22.12 11.98 24.41 30.04 40.58 56.30 50.39 6.72 2.49 10.86 3.70 25.14 7.28 13.03 3.26 19.18 5.27 25.30 8.32 19.51 9.73 31.77 26.30 36.64 49.59 2.21 10.62 2.69 16.01 2.90 32.21 0.16 13.51 0.08 16.77 -0.93 31.37 -1.09 15.68 -1.13 17.66 -1.21 52.48 -0.08 43.27 -0.52 51.36 -3.62 68.97 -2.98 16.89 -8.53 33.78 -14.68 44.76 -4.75 8.45 -11.70 17.13 -18.46 23.04 -2.94 2.57 -3.62 2.98 -4.91 2.98 -1.77 0 -1.81 -0.04 -1.09 -5.79 0.52 -4.38 0.20 -6.88 -1.05 -8.12 -1.33 -1.33 -2.73 -1.25 -3.94 0.20 -0.80 0.97 -1.13 2.13 -1.69 5.83 -0.68 4.50 -0.68 4.67 0.08 5.95 0.56 0.97 1.25 1.49 2.65 1.93 1.69 0.56 1.89 0.72 1.89 1.85 0 1.69 -1.45 2.94 -5.75 5.03 -0.93 0.48 -2.13 1.09 -2.69 1.41 -9.53 5.35 -17.29 7.64 -20.47 6.03 -2.01 -1.05 -4.67 -0.04 -7.04 2.65 -1.81 2.05 -1.85 2.05 -5.75 2.82 -2.17 0.40 -6.03 0.84 -8.61 1.01 l-4.67 0.20 -1.09 -1.37 c-1.53 -2.01 -4.75 -3.70 -6.56 -3.42 -2.17 0.36 -4.46 2.09 -5.43 4.10 l-0.88 1.81 -6.43 -0.04 c-3.58 -0.04 -7.84 -0.20 -9.49 -0.40z m65.55 -15.64 c1.77 -1.25 2.61 -3.98 2.61 -8.32 0 -3.10 -0.12 -3.86 -0.84 -4.83 -0.64 -0.84 -1.21 -1.13 -2.21 -1.13 -1.81 0 -2.98 1.73 -3.58 5.51 -0.80 4.63 -0.72 6.92 0.20 7.96 0.64 0.72 1.81 1.45 2.53 1.57 0.08 0.04 0.68 -0.32 1.29 -0.76z m-11.58 -14.88 c1.29 -1.41 2.17 -4.18 2.69 -8.69 0.48 -3.78 0.24 -5.87 -0.80 -7.64 -1.49 -2.49 -3.70 -2.57 -5.71 -0.20 -2.09 2.49 -3.46 12.59 -2.09 15.48 1.33 2.82 3.86 3.26 5.91 1.05z m19.83 -6.96 c1.57 -1.57 2.09 -3.26 2.45 -8.12 0.32 -4.42 -0.20 -6.60 -1.89 -8 -1.49 -1.29 -2.73 -1.33 -4.18 -0.16 -1.53 1.21 -2.05 2.69 -2.82 7.96 -0.80 5.31 -0.52 6.96 1.45 8.61 1.73 1.49 3.34 1.37 4.99 -0.28z m19.06 -9.37 c1.41 -1.17 2.25 -3.66 2.65 -7.80 0.36 -3.42 -0.24 -5.67 -1.85 -7 -1.61 -1.37 -2.45 -1.33 -4.14 0.16 -1.73 1.53 -2.37 4.02 -2.41 9.37 l-0.04 3.98 1.33 1.17 c1.61 1.45 2.86 1.49 4.46 0.12z m15.85 -4.99 c1.61 -1.29 2.41 -3.94 2.45 -8.24 0.04 -3.22 -0.08 -3.90 -0.80 -4.87 -1.29 -1.73 -1.97 -2.01 -3.18 -1.37 -1.45 0.76 -1.97 1.97 -2.78 6.27 -0.93 5.35 -0.88 6.43 0.52 7.84 1.41 1.37 2.37 1.45 3.78 0.36z m-116.51 -5.43 c-0.20 -1.17 -0.48 -1.81 -0.88 -1.81 -0.32 0 -0.56 0.16 -0.56 0.36 0 0.20 -0.12 0.72 -0.24 1.13 -0.20 0.60 -0.16 0.60 0.16 0.12 0.36 -0.48 0.52 -0.36 0.84 0.52 0.24 0.64 0.44 1.33 0.44 1.57 0 0.24 0.12 0.36 0.24 0.20 0.16 -0.12 0.12 -1.09 0 -2.09z m87.03 -13.07 c1.49 -1.05 2.33 -3.30 3.06 -8.16 0.60 -3.98 0.60 -4.02 -0.32 -5.87 -0.52 -1.09 -1.45 -2.13 -2.21 -2.57 -1.29 -0.72 -1.37 -0.72 -2.82 0 -2.09 1.01 -2.78 2.69 -3.34 8.04 -0.56 5.47 -0.36 6.56 1.45 8.16 1.61 1.41 2.61 1.53 4.18 0.40z m22.72 -3.38 c1.49 -1.61 2.21 -3.90 2.49 -8.28 0.24 -3.42 -0.24 -4.91 -2.13 -6.39 -1.41 -1.13 -2.25 -1.05 -3.74 0.20 -1.61 1.33 -2.41 4.06 -2.73 9.05 l-0.24 3.82 1.33 1.49 c1.73 1.97 3.22 2.01 5.03 0.12z m17.21 -17.90 c1.77 -1.97 2.09 -3.58 2.09 -11.10 0 -6.15 -0.28 -7.08 -2.45 -8.49 -0.93 -0.64 -1.13 -0.64 -2.41 -0.04 -0.76 0.36 -1.73 1.25 -2.13 1.93 -1.77 2.90 -2.53 13.83 -1.13 16.37 0.76 1.37 2.82 2.90 3.94 2.90 0.36 0 1.33 -0.72 2.09 -1.57z m-38.57 -6.03 c3.02 -3.18 2.94 -12.31 -0.16 -13.92 -1.01 -0.52 -1.21 -0.52 -2.13 0.20 -1.33 1.05 -2.17 3.26 -2.73 7.36 -0.56 3.94 -0.32 5.19 1.13 6.56 1.37 1.29 2.53 1.21 3.90 -0.20z m18.14 -4.18 c0.80 -0.80 1.57 -2.17 1.97 -3.50 0.76 -2.57 0.84 -9.17 0.12 -11.26 -0.56 -1.57 -2.78 -3.30 -3.82 -2.94 -1.01 0.36 -2.49 1.77 -3.10 2.98 -0.76 1.45 -1.53 7.60 -1.33 10.70 0.16 2.41 0.28 2.73 1.65 3.98 1.85 1.73 2.82 1.73 4.50 0.04z m17.94 -23.33 c2.01 -1.33 2.90 -3.50 3.10 -7.52 0.20 -4.50 -0.44 -7.72 -1.97 -9.41 -1.45 -1.65 -2.33 -1.93 -3.94 -1.17 -1.97 0.97 -2.78 3.22 -3.34 9.21 -0.52 5.95 -0.36 7.04 1.29 8.65 1.41 1.45 2.98 1.53 4.87 0.24z m-22.76 -4.95 c1.53 -1.01 2.37 -3.82 2.37 -7.80 0 -3.70 -0.68 -5.63 -2.21 -6.47 -1.21 -0.60 -2.53 0.16 -3.42 1.97 -0.84 1.77 -1.93 8.65 -1.61 9.97 0.32 1.29 2.13 2.98 3.14 2.98 0.40 0 1.21 -0.28 1.73 -0.64z m13.79 -24.05 c1.49 -1.69 2.25 -4.95 2.01 -8.61 -0.16 -2.33 -0.32 -2.73 -1.45 -3.74 -1.57 -1.41 -2.13 -1.45 -3.46 -0.24 -1.89 1.61 -3.26 9.61 -2.09 11.86 1.29 2.45 3.22 2.73 4.99 0.72z m-45.85 -66.68 c2.01 -1.05 4.87 -3.98 5.91 -6.19 0.36 -0.80 0.88 -2.61 1.13 -4.02 0.44 -2.53 0.88 -3.18 1.33 -1.97 0.20 0.48 1.09 0.60 4.54 0.60 5.43 0 9.33 -0.93 14.44 -3.46 6.56 -3.22 11.70 -9.25 13.96 -16.41 3.86 -12.11 -0.93 -27.59 -11.86 -38.45 -8.57 -8.49 -17.98 -10.74 -28.63 -6.84 -5.87 2.17 -9.93 5.19 -13.15 9.85 -5.59 8.08 -7.32 19.18 -4.58 29.36 0.80 3.10 3.26 8.37 4.91 10.58 1.17 1.57 1.41 1.69 3.06 1.69 1.53 0 1.81 0.12 1.81 0.80 0 0.56 -0.28 0.80 -0.84 0.80 -2.82 0 -7.44 4.14 -8.61 7.68 -3.10 9.29 8.20 20.15 16.61 15.97z"/>
 </g>
 <g fill="#f37147">
  <path d="M39.53 545.95 c-2.41 -1.69 -3.50 -11.38 -2.53 -22.12 1.65 -17.94 8.77 -41.42 18.10 -59.88 1.93 -3.78 7.48 -14.20 12.35 -23.17 4.87 -8.97 10.42 -19.18 12.31 -22.72 l3.46 -6.43 1.65 -0.12 c1.61 -0.12 1.77 0 4.26 2.61 2.05 2.17 2.57 3.02 2.57 4.02 0 1.97 -6.76 28.51 -11.42 44.76 -13.67 47.90 -22.80 70.74 -32.38 81.36 l-2.13 2.29 -2.69 0 c-1.73 0 -2.98 -0.20 -3.54 -0.60z"/>
  <path d="M183.19 414.28 c-1.89 -0.80 -2.41 -1.93 -2.37 -5.43 0.04 -4.38 0.84 -8.81 1.93 -10.38 1.61 -2.37 5.11 -2.49 6.84 -0.20 0.76 1.01 0.84 1.69 0.84 6.03 0 5.63 -0.68 8.16 -2.61 9.53 -1.17 0.80 -3.18 1.01 -4.63 0.44z"/>
  <path d="M203.62 409.49 l1.09 -1.13 -1.81 -0.48 c-3.42 -0.93 -3.98 -3.06 -2.78 -10.82 0.80 -5.07 1.73 -6.47 4.38 -6.80 4.34 -0.52 5.79 3.22 4.63 12.11 -0.20 1.53 -0.28 2.90 -0.20 2.98 0.12 0.08 0.44 -0.08 0.80 -0.36 0.52 -0.44 0.60 -0.32 0.60 0.68 0 1.93 -3.98 4.95 -6.52 4.95 l-1.29 0 1.09 -1.13z"/>
  <path d="M169.68 400 c-1.97 -1.13 -2.49 -3.02 -2.29 -8.24 0.40 -9.05 2.13 -13.11 5.83 -13.59 4.87 -0.64 6.76 3.22 5.79 11.58 -0.60 5.03 -1.45 7.76 -2.82 9.29 -0.93 1.05 -1.45 1.29 -3.30 1.41 -1.41 0.08 -2.53 -0.08 -3.22 -0.44z"/>
  <path d="M189.87 393.04 c-3.18 -1.65 -3.78 -4.30 -2.69 -11.82 1.01 -6.88 2.41 -8.93 6.03 -8.93 1.97 0 3.50 0.76 4.54 2.37 1.41 2.17 1.01 13.23 -0.56 15.97 -1.57 2.65 -4.83 3.74 -7.32 2.41z"/>
  <path d="M209.09 383.15 c-2.21 -1.49 -2.45 -2.29 -2.25 -7.72 0.24 -6.23 0.80 -8.28 2.57 -9.85 1.85 -1.65 4.71 -1.73 6.52 -0.16 1.73 1.41 2.21 3.54 1.89 8.20 -0.40 6.35 -1.53 8.93 -4.38 10.01 -1.73 0.64 -2.86 0.52 -4.34 -0.48z"/>
  <path d="M232.78 376.48 c0.80 -1.53 1.53 -2.65 1.61 -2.41 0.24 0.60 -0.72 3.06 -1.57 4.14 -1.53 1.93 -1.53 1.05 -0.04 -1.73z"/>
  <path d="M226.54 378.41 c-2.09 -0.60 -2.94 -2.05 -2.94 -5.11 0 -2.78 0.93 -8.77 1.69 -10.62 0.60 -1.65 2.86 -2.90 4.54 -2.57 3.06 0.60 4.14 3.58 3.66 10.05 -0.32 4.22 -1.21 6.60 -2.98 7.80 -1.29 0.97 -1.97 1.01 -3.98 0.44z"/>
  <path d="M196.86 359.91 c-2.05 -0.56 -3.50 -2.45 -3.74 -4.75 -0.24 -2.57 0.64 -11.14 1.33 -12.79 1.09 -2.61 5.19 -3.78 7.76 -2.13 1.53 0.97 2.86 3.58 2.90 5.63 0 2.37 -1.13 9.05 -1.85 10.82 -1.05 2.69 -3.74 4.02 -6.39 3.22z"/>
  <path d="M218.58 357.13 c-1.49 -0.60 -2.78 -2.37 -2.98 -4.14 -0.32 -2.25 0.24 -8.45 0.97 -11.02 0.80 -2.82 2.41 -4.14 4.99 -4.14 2.17 0 3.70 0.93 4.67 2.82 1.33 2.57 0.36 11.98 -1.45 14.52 -1.37 1.97 -4.14 2.86 -6.19 1.97z"/>
  <path d="M234.99 338.63 c-2.29 -1.41 -2.73 -2.78 -2.73 -8.65 0.04 -5.51 0.64 -10.01 1.65 -11.94 1.41 -2.73 5.47 -3.62 7.76 -1.69 1.85 1.57 2.17 3.38 1.93 11.02 -0.28 7.52 -0.56 8.85 -2.37 10.74 -1.09 1.13 -1.57 1.33 -3.10 1.33 -1.13 0 -2.37 -0.32 -3.14 -0.80z"/>
  <path d="M198.67 333.16 c-2.82 -0.97 -3.62 -2.29 -3.62 -5.87 0.04 -3.22 0.93 -8.24 1.77 -9.89 1.81 -3.46 6.19 -3.30 7.64 0.32 1.45 3.66 0.48 12.02 -1.61 14.08 -1.17 1.13 -3.06 1.73 -4.18 1.37z"/>
  <path d="M214.04 327.61 l-1.49 -1.37 -0.12 -3.86 c-0.16 -4.34 0.48 -10.30 1.33 -11.86 1.57 -3.06 4.91 -4.10 7.44 -2.37 1.93 1.33 2.37 2.90 2.37 8.81 0.04 6.03 -0.60 8.73 -2.57 10.70 -1.17 1.17 -1.61 1.33 -3.38 1.33 -1.77 0 -2.25 -0.20 -3.58 -1.37z"/>
  <path d="M232.98 305.05 c-2.05 -0.88 -2.94 -2.69 -2.94 -6.07 0 -4.95 0.76 -11.10 1.65 -12.91 1.57 -3.30 5.79 -3.90 8.24 -1.21 1.61 1.73 2.17 4.26 2.17 9.69 0 6.56 -1.09 9.05 -4.50 10.50 -1.81 0.72 -2.94 0.76 -4.63 0z"/>
  <path d="M212.35 300.18 c-3.62 -1.25 -4.26 -3.38 -3.06 -10.62 0.93 -5.67 1.97 -7.24 4.79 -7.24 3.54 0 4.46 1.65 4.50 8.04 0 6.72 -1.09 9.13 -4.42 9.77 -0.68 0.12 -1.49 0.12 -1.81 0.04z"/>
  <path d="M225.38 276.74 c-1.73 -0.44 -2.09 -0.72 -2.82 -2.17 -1.37 -2.61 0.08 -12.51 2.09 -14.24 1.53 -1.41 4.18 -1.29 5.87 0.24 1.29 1.17 1.33 1.29 1.45 4.99 0.20 5.39 -0.44 8.12 -2.33 10.01 -1.53 1.57 -2.05 1.69 -4.26 1.17z"/>
  <path d="M283.81 226.02 c-0.40 -4.71 -4.99 -9.89 -11.10 -12.63 -2.37 -1.05 -11.78 -3.62 -17.41 -4.71 l-2.33 -0.48 0 -2.13 0 -2.17 2.53 0 c2.57 0 13.59 2.41 18.38 4.02 4.99 1.69 10.50 5.79 12.75 9.57 0.97 1.65 1.13 2.29 1.13 5.11 0 1.81 -0.24 3.78 -0.56 4.54 -0.44 1.09 -0.76 1.29 -1.85 1.29 -1.29 0 -1.29 0 -1.53 -2.41z"/>
  <path d="M173.46 208.69 c-5.79 -2.25 -9.97 -9.57 -8.97 -15.77 0.48 -3.06 1.29 -4.79 3.18 -6.80 2.61 -2.86 4.79 -3.74 9.29 -3.74 3.38 0 4.10 0.12 6.11 1.13 5.99 2.94 9.41 10.09 7.80 16.33 -0.97 3.82 -3.50 7.08 -6.88 8.85 -2.17 1.17 -7.52 1.17 -10.54 0z"/>
 </g>
 <g fill="#eb605f">
  <path d="M70.42 555.48 c-3.22 -3.22 -5.19 -14.48 -4.75 -27.63 0.40 -13.03 2.49 -25.46 6.15 -36.92 6.47 -20.19 15.04 -50.79 18.54 -66.24 l1.17 -5.03 1.93 -0.12 c1.29 -0.08 2.25 0.08 2.94 0.56 l1.05 0.68 -0.28 12.31 c-0.52 24.77 -2.01 48.38 -4.30 69.21 -3.14 28.51 -7.72 45.61 -14.16 52.56 -1.57 1.73 -1.61 1.73 -4.38 1.73 -2.53 0 -2.90 -0.12 -3.90 -1.13z"/>
  <path d="M55.94 413.96 c-0.52 -0.44 -1.17 -1.97 -1.73 -3.94 -0.76 -2.82 -0.88 -4.22 -0.88 -11.66 0 -7.92 0.08 -8.81 1.29 -14.48 0.68 -3.30 2.25 -9.73 3.50 -14.28 5.31 -19.59 6.31 -23.53 8.04 -30.77 2.69 -11.26 3.34 -15.93 3.62 -26.34 0.52 -20.11 2.05 -31.53 6.64 -49.63 5.59 -22.12 14.56 -35.95 27.55 -42.27 5.07 -2.49 7.64 -3.02 15.08 -3.02 6.88 0 9.09 0.40 13.43 2.37 14.32 6.47 23.81 22.36 27.67 46.33 0.84 5.27 0.93 7.08 0.93 19.87 0 14.72 -0.16 16.85 -2.25 28.15 -2.13 11.66 -7.28 28.63 -10.90 35.91 l-1.73 3.50 -2.21 0 c-2.01 0 -2.25 -0.08 -2.73 -1.13 -0.80 -1.65 -2.05 -7.96 -2.33 -11.82 -0.16 -1.85 -0.40 -3.34 -0.52 -3.34 -0.12 0 -0.84 2.53 -1.57 5.59 -2.61 11.06 -7.20 23.93 -11.82 33.22 -3.02 6.03 -3.54 6.64 -5.83 6.64 -1.33 0 -1.85 -0.20 -2.29 -0.93 -0.80 -1.17 -1.65 -6.11 -2.49 -14.68 -0.56 -5.27 -0.84 -6.80 -1.17 -6.43 -0.28 0.28 -1.09 2.61 -1.81 5.15 -2.57 8.97 -7.04 18.70 -11.02 23.97 l-2.05 2.78 -2.25 0.12 c-1.85 0.08 -2.33 0 -2.61 -0.60 -0.16 -0.40 -0.40 -6.96 -0.52 -14.60 l-0.24 -13.88 -1.17 3.42 c-5.67 16.85 -14.60 32.05 -24.98 42.55 l-4.87 4.91 -2.45 0 c-1.73 0 -2.69 -0.20 -3.30 -0.68z m66.20 -66.76 c1.49 -1.01 3.30 -3.86 4.54 -7.32 1.37 -3.74 2.61 -9.45 2.25 -10.38 -0.48 -1.21 -1.09 0.08 -1.65 3.26 -0.76 4.42 -2.53 9.69 -3.98 11.86 -1.17 1.73 -1.37 1.85 -3.18 1.97 -4.14 0.28 -5.11 -1.89 -5.11 -11.46 0 -3.38 -0.16 -6.15 -0.36 -6.15 -0.97 0 -1.29 1.37 -1.29 5.51 -0.04 6.23 0.68 9.05 2.90 11.58 2.05 2.33 3.58 2.61 5.87 1.13z m-24.85 -2.98 c1.85 -1.13 2.69 -2.21 3.66 -4.71 1.01 -2.61 2.01 -8.28 2.01 -11.26 0 -2.13 -0.04 -2.17 -0.72 -1.53 -0.60 0.52 -0.80 1.49 -1.01 4.99 -0.28 4.30 -0.93 7.48 -1.89 9.33 -1.01 1.97 -1.65 2.41 -3.50 2.41 -4.06 0 -4.67 -1.33 -4.87 -10.18 -0.12 -5.59 -0.24 -6.68 -0.72 -6.31 -0.84 0.72 -1.09 3.74 -0.60 7.92 0.64 5.55 2.09 8.49 4.67 9.61 1.53 0.68 1.37 0.68 2.98 -0.28z m40.78 -27.23 c2.29 -2.09 3.78 -6.64 4.18 -12.79 0.28 -4.63 0.04 -6.27 -0.88 -5.95 -0.44 0.20 -0.60 0.97 -0.60 3.34 -0.04 6.31 -1.17 11.46 -3.10 14.04 -0.88 1.17 -1.17 1.29 -3.18 1.29 -4.26 0 -5.39 -2.57 -5.67 -13.07 -0.12 -3.74 -0.36 -7 -0.56 -7.24 -0.24 -0.24 -0.56 -0.16 -0.97 0.20 -0.48 0.52 -0.48 1.61 -0.20 6.84 0.60 10.13 2.09 13.43 6.84 14.96 0.72 0.28 3.10 -0.68 4.14 -1.61z m-23.69 -0.52 c2.25 -1.77 3.70 -6.11 4.22 -13.03 0.40 -4.79 0.20 -7.16 -0.52 -6.92 -0.28 0.08 -0.52 2.25 -0.68 6.15 -0.24 6.39 -0.93 9.69 -2.41 11.58 -0.76 0.97 -1.05 1.09 -3.10 0.97 -2.17 -0.12 -2.29 -0.20 -3.18 -1.73 -1.09 -1.97 -1.33 -3.70 -1.65 -12.67 -0.24 -5.87 -0.36 -7.04 -0.88 -7.04 -0.80 0 -1.01 5.07 -0.44 11.66 0.36 4.06 0.60 5.19 1.65 7.32 1.33 2.65 3.42 4.54 5.07 4.54 0.48 0 1.33 -0.36 1.93 -0.84z m-24.45 -5.31 c2.94 -1.93 5.47 -7.88 6.03 -14 0.32 -3.22 0.04 -4.30 -0.84 -3.58 -0.40 0.32 -0.60 1.25 -0.60 2.90 0 4.54 -1.53 10.09 -3.46 12.71 -0.93 1.21 -1.17 1.29 -3.42 1.29 -1.77 0 -2.57 -0.20 -3.14 -0.76 -1.13 -1.13 -1.65 -5.15 -1.65 -12.63 0 -3.66 -0.16 -6.76 -0.32 -6.88 -0.16 -0.08 -0.56 -0.04 -0.88 0.16 -0.44 0.28 -0.48 1.49 -0.28 6.35 0.36 9.21 1.57 13.23 4.38 14.96 1.45 0.88 2.25 0.76 4.18 -0.52z m56.51 -25.10 c3.42 -2.90 4.83 -11.90 3.38 -21.56 -0.60 -4.14 -1.21 -5.87 -1.85 -5.23 -0.24 0.24 -0.20 1.21 0.12 2.57 0.76 3.34 0.68 16.05 -0.16 18.98 -1.01 3.54 -1.65 4.30 -3.58 4.30 -2.05 0 -2.90 -0.44 -3.86 -2.09 -2.45 -4.22 -4.38 -11.38 -5.07 -18.90 -0.40 -4.26 -0.60 -5.35 -1.09 -5.35 -1.65 0 0.24 12.91 2.86 19.42 2.05 5.15 5.11 8.89 7.28 8.93 0.36 0 1.25 -0.48 1.97 -1.09z m-49.59 -4.75 c3.14 -2.82 5.83 -11.34 6.35 -19.99 0.28 -4.63 0.08 -5.91 -0.80 -5.19 -0.32 0.28 -0.60 1.93 -0.76 4.75 -0.44 7.76 -2.13 15.48 -4.02 18.26 -0.84 1.29 -1.09 1.37 -3.34 1.49 l-2.41 0.12 -0.68 -1.49 c-1.89 -3.94 -2.86 -15.48 -1.93 -23.41 0.28 -2.29 0.40 -4.26 0.28 -4.38 -0.56 -0.56 -1.41 0.97 -1.77 3.22 -0.80 4.75 -0.97 8.53 -0.52 13.96 0.68 8.81 1.45 11.14 4.42 13.15 1.97 1.33 3.38 1.21 5.19 -0.48z m24.37 0.20 c3.14 -2.78 4.50 -8.37 4.10 -17.01 -0.24 -5.99 -0.52 -7.20 -1.45 -6.11 -0.40 0.48 -0.48 1.69 -0.28 5.15 0.36 6.23 -0.24 12.79 -1.41 15.12 -0.80 1.57 -1.13 1.85 -2.29 1.97 -2.45 0.24 -3.10 -0.16 -3.98 -2.41 -0.48 -1.17 -1.13 -3.22 -1.45 -4.54 -0.76 -3.02 -1.85 -11.26 -1.85 -13.92 0 -2.53 -0.60 -3.86 -1.45 -3.14 -0.72 0.60 -0.72 2.65 0.04 8 1.25 8.69 3.38 15 5.87 17.05 1.61 1.37 2.45 1.33 4.14 -0.16z"/>
 </g>
 <g fill="#232130">
  <path d="M135.53 447.82 c-0.84 -1.05 -1.33 -7.88 -0.84 -12.27 0.68 -6.15 2.49 -10.38 5.19 -12.15 1.33 -0.88 5.95 -0.97 7.84 -0.16 4.50 1.93 8.24 10.54 8.45 19.34 l0.08 4.02 -1.85 0.12 c-1.65 0.12 -1.89 0 -2.13 -0.80 -0.12 -0.52 -0.88 -3.42 -1.65 -6.43 -1.45 -5.83 -2.45 -8.28 -4.14 -10.05 -1.33 -1.45 -2.05 -1.41 -3.46 0.04 -1.57 1.61 -2.53 5.47 -3.06 11.86 -0.60 7.28 -0.52 7.08 -2.37 7.08 -0.88 0 -1.77 -0.24 -2.05 -0.60z"/>
  <path d="M176.23 447.30 c-0.68 -0.44 -1.73 -12.55 -1.41 -16.05 l0.24 -2.53 1.33 0 c1.69 0 1.69 -0.32 0.12 -1.85 -1.21 -1.09 -1.29 -1.13 -1.73 -0.40 -0.24 0.40 -0.84 1.33 -1.29 2.05 -1.73 2.57 -2.78 7.72 -3.10 15.08 l-0.08 2.21 -1.81 0 c-1.49 0 -1.85 -0.16 -2.29 -1.01 -0.64 -1.29 -0.72 -11.94 -0.08 -14.96 0.84 -3.98 3.18 -7.68 5.67 -9.01 1.41 -0.72 5.27 -0.72 6.72 0.04 2.98 1.53 6.64 7.88 8.28 14.52 0.80 3.14 1.01 4.79 0.93 7.80 l-0.12 3.82 -1.61 0.12 c-1.41 0.12 -1.69 -0.04 -2.29 -1.01 -0.36 -0.60 -1.01 -2.90 -1.49 -5.03 -0.80 -3.78 -2.57 -9.53 -3.30 -10.78 -0.56 -1.01 -0.40 -0.08 0.28 1.53 0.76 1.81 1.25 12.02 0.68 14.16 -0.32 1.25 -0.52 1.41 -1.77 1.53 -0.76 0.04 -1.61 -0.08 -1.89 -0.24z"/>
  <path d="M144.82 446.65 c-0.28 -0.32 -0.76 -3.42 -1.09 -6.92 -0.72 -7.60 -0.56 -8.32 1.77 -8.12 1.41 0.12 1.53 0.24 2.25 2.33 0.56 1.65 0.72 3.38 0.72 6.92 0 5.87 -0.16 6.35 -1.85 6.35 -0.76 0 -1.57 -0.24 -1.81 -0.56z"/>
  <path d="M88.08 331.79 c0 -2.53 0.08 -2.82 0.80 -2.82 0.72 0 0.80 0.28 0.80 2.82 0 2.53 -0.08 2.82 -0.80 2.82 -0.72 0 -0.80 -0.28 -0.80 -2.82z"/>
  <path d="M128.29 299.58 c0 -4.02 0.08 -4.42 0.72 -4.30 0.60 0.12 0.68 0.72 0.80 4.46 0.12 4.10 0.08 4.30 -0.72 4.30 -0.76 0 -0.80 -0.24 -0.80 -4.46z"/>
 </g>
 <g fill="#181717">
  <path d="M71.79 557.73 c-3.98 -2.17 -6.47 -8.32 -7.48 -18.42 -0.44 -4.50 -0.28 -15.64 0.28 -19.79 0.20 -1.41 0.12 -1.93 -0.24 -1.93 -0.24 0 -0.56 0.36 -0.68 0.76 -0.48 1.89 -6.19 13.83 -8.28 17.41 -2.69 4.58 -6.47 9.45 -8.57 11.02 -1.97 1.49 -5.47 1.65 -7.28 0.32 -3.26 -2.41 -4.34 -6.52 -4.30 -16.25 0.04 -10.22 1.69 -20.11 5.63 -33.66 0.97 -3.38 1.77 -6.23 1.77 -6.35 0 -0.12 -0.24 -0.20 -0.48 -0.20 -0.60 0.04 -4.14 6.11 -9.61 16.49 -6.92 13.15 -7.52 14 -9.73 13.47 -4.14 -1.05 -6.31 -16.97 -4.10 -29.76 2.94 -16.93 12.51 -34.79 29.12 -54.29 4.91 -5.75 17.66 -18.38 25.38 -25.10 3.66 -3.18 6.88 -5.99 7.16 -6.27 0.84 -0.76 -0.72 -6.84 -1.77 -6.84 -0.44 0 -2.17 1.77 -4.42 4.63 -4.18 5.19 -9.01 10.01 -12.02 11.98 -1.77 1.21 -2.25 1.33 -3.98 1.17 -1.61 -0.16 -2.21 -0.44 -3.10 -1.41 -2.09 -2.33 -3.58 -9.21 -3.58 -16.49 0.04 -7.40 1.37 -14.64 5.63 -30.24 3.14 -11.42 8.24 -31.81 9.45 -37.40 0.93 -4.34 1.09 -6.56 1.41 -16.49 0.20 -6.31 0.68 -14.52 1.01 -18.22 2.01 -21.56 8.20 -45.12 15 -56.91 1.49 -2.65 1.53 -2.78 2.01 -9.33 0.97 -12.39 3.14 -27.19 5.35 -35.95 0.44 -1.73 0.76 -3.22 0.68 -3.26 -0.08 -0.04 -2.37 -1.29 -5.15 -2.69 -14.24 -7.36 -26.83 -17.13 -32.70 -25.34 -4.22 -5.91 -6.47 -12.67 -4.95 -15 1.57 -2.41 3.74 -2.09 7.76 1.13 7.44 5.99 16.33 10.34 25.06 12.31 3.30 0.72 12.43 1.77 12.79 1.45 0.08 -0.04 -1.89 -1.25 -4.38 -2.61 -5.51 -3.10 -13.88 -8.65 -18.46 -12.31 -4.63 -3.74 -12.79 -11.70 -15.81 -15.56 -6.60 -8.32 -10.34 -17.37 -10.34 -24.89 0 -2.86 0.52 -4.10 2.09 -5.27 0.97 -0.72 1.29 -0.76 2.61 -0.36 0.84 0.24 2.98 1.57 4.75 2.94 8.12 6.19 19.10 12.87 26.87 16.33 4.38 1.93 13.63 5.11 16.17 5.51 l1.61 0.28 -2.41 -2.09 c-3.78 -3.26 -9.09 -8.77 -11.86 -12.27 -10.38 -13.03 -16.85 -29.48 -16.93 -43.11 -0.04 -2.13 0.16 -4.34 0.44 -4.91 0.52 -1.17 2.09 -2.01 3.74 -2.01 1.45 0 2.37 0.97 6.31 6.43 3.30 4.63 10.66 12.31 15.12 15.81 3.86 3.02 9.33 6.60 13.43 8.85 3.58 1.93 10.82 5.11 11.62 5.11 0.24 0 -0.64 -1.33 -1.97 -2.94 -1.33 -1.57 -4.14 -5.35 -6.23 -8.32 -16.17 -23.13 -24.81 -46.65 -23.77 -64.95 0.56 -10.09 3.42 -16.69 7.24 -16.69 2.21 0 3.18 1.37 4.46 6.31 6.96 27.11 21.11 48.10 41.42 61.49 12.31 8.08 23.61 12.51 46.17 18.06 14.84 3.66 18.78 4.95 26.62 8.85 7.68 3.82 12.47 7.24 18.30 13.07 13.19 13.15 19.67 29 22.28 54.66 0.36 3.18 0.68 5.87 0.80 5.95 0.08 0.08 1.49 0.44 3.14 0.76 4.34 0.88 9.33 2.73 12.43 4.58 11.38 6.76 19.26 22.40 19.26 38.13 0 6.80 -1.09 11.22 -3.34 13.67 -0.88 0.97 -2.37 1.17 -2.98 0.40 -0.24 -0.28 -0.60 -1.17 -0.88 -1.93 -1.05 -3.34 -4.91 -6.27 -10.70 -8.28 -2.94 -1.01 -3.90 -1.13 -10.54 -1.29 -6.84 -0.16 -7.32 -0.12 -7.68 0.60 -0.84 1.57 -1.41 25.54 -1.13 49.39 0.28 25.02 -0.04 36.40 -1.37 49.59 -3.30 31.93 -12.19 57.63 -25.82 74.40 -5.75 7.08 -13.79 14.44 -19.63 17.94 -1.01 0.60 -2.98 1.81 -4.42 2.69 -2.29 1.45 -4.79 2.73 -9.05 4.58 -0.64 0.32 -2.37 1.09 -3.82 1.73 -1.45 0.64 -3.18 1.29 -3.82 1.45 -2.17 0.56 -2.25 0.93 -0.80 3.06 2.13 3.18 3.78 8.16 4.63 13.88 0.64 4.50 0.52 6.80 -0.40 7.96 l-0.80 1.01 0.93 0.24 c0.48 0.12 25.02 0.24 54.49 0.24 l53.57 0 0 1.81 0 1.81 -84.13 0 c-46.29 0 -84.58 -0.12 -85.10 -0.24 -1.37 -0.40 -1.65 -2.13 -0.44 -3.10 0.84 -0.68 1.41 -0.76 4.91 -0.56 2.13 0.12 3.90 0.16 3.90 0.08 0 -0.04 -0.28 -0.88 -0.64 -1.85 -0.72 -1.93 -1.01 -10.78 -0.48 -13.88 l0.32 -1.61 -6.96 -0.48 c-10.42 -0.68 -17.13 -2.05 -24.37 -4.95 -2.05 -0.80 -3.10 -1.05 -3.46 -0.76 -0.32 0.28 -0.56 3.58 -0.72 11.66 -0.44 17.45 -1.73 39.37 -3.34 56.51 -3.26 34.95 -8.45 55.18 -16.13 62.82 -2.45 2.49 -2.57 2.53 -4.63 2.53 -1.17 0 -2.49 -0.24 -2.94 -0.48z m5.71 -4.06 c6.43 -6.96 11.02 -24.05 14.16 -52.56 2.25 -20.23 3.70 -43.31 4.30 -68.01 l0.28 -11.14 -1.05 -0.68 c-2.01 -1.29 -2.37 -0.84 -3.62 4.63 -3.50 15.52 -12.07 46.05 -18.54 66.24 -6.68 20.83 -8.12 46.01 -3.42 58.68 1.21 3.18 2.65 4.58 4.71 4.58 1.37 0 1.81 -0.24 3.18 -1.73z m-30.81 -10.62 c9.57 -10.62 18.70 -33.46 32.33 -81.20 3.26 -11.30 9.21 -34.18 11.18 -42.79 0.20 -0.84 -0.20 -1.49 -2.33 -3.78 -1.41 -1.49 -2.78 -2.65 -3.02 -2.57 -0.28 0.08 -2.01 3.02 -3.90 6.56 -1.89 3.54 -7.44 13.75 -12.31 22.72 -4.87 8.97 -10.42 19.38 -12.35 23.17 -11.82 23.41 -19.95 55.06 -18.18 71.02 0.76 7.08 1.89 9.17 4.95 9.17 1.33 0 1.77 -0.28 3.62 -2.29z m-19.10 -32.62 c4.71 -9.01 10.30 -19.14 17.37 -31.25 3.22 -5.51 8.41 -14.84 11.54 -20.71 3.14 -5.87 8.97 -16.61 12.95 -23.93 13.23 -24.29 14.12 -26.18 12.71 -26.62 -1.01 -0.36 -19.22 16.37 -26.74 24.49 -8.73 9.53 -13.35 15.32 -19.22 24.29 -10.86 16.53 -16.21 32.78 -15.56 47.22 0.32 6.88 1.97 14.16 3.06 13.51 0.20 -0.16 1.97 -3.30 3.90 -7z m143.90 -62.38 l3.58 -0.04 -0.28 -4.91 c-0.32 -5.63 -0.88 -10.34 -1.21 -10.70 -0.52 -0.48 -0.72 0.44 -1.49 5.91 -0.93 6.92 -1.05 7.44 -1.97 8.28 -1.81 1.65 -3.94 -0.36 -4.83 -4.58 -0.48 -2.41 -0.36 -10.62 0.24 -12.99 0.24 -1.09 0.20 -1.13 -1.25 -1.13 -1.85 0 -9.13 1.21 -9.53 1.57 -0.16 0.12 0.12 1.61 0.68 3.30 1.05 3.34 2.29 10.90 2.21 13.43 -0.04 0.88 -0.04 1.69 -0.04 1.81 0.04 0.20 4.06 0.20 13.88 0.04z m-27.75 -2.94 c-0.36 -4.42 -0.93 -9.29 -1.13 -9.49 -0.40 -0.36 -0.97 0.40 -1.21 1.61 -0.12 0.72 -0.40 3.06 -0.64 5.15 -0.24 2.09 -0.52 4.18 -0.64 4.71 -0.24 0.88 -0.12 0.93 1.81 0.93 l2.05 0 -0.24 -2.90z m8.28 2.49 c0 -0.64 -1.61 -8.12 -2.05 -9.53 -0.24 -0.72 -0.56 -1.33 -0.68 -1.33 -0.16 0 -0.28 2.53 -0.28 5.63 l0 5.63 1.53 0 c0.80 0 1.49 -0.20 1.49 -0.40z m33.10 -0.08 c-1.21 -0.60 -2.33 -3.06 -3.18 -7.04 -0.48 -2.33 -0.88 -3.34 -1.29 -3.34 -0.44 0 -0.52 0.36 -0.36 1.69 0.24 1.73 -0.24 7.20 -0.72 8.49 -0.24 0.60 0.04 0.68 3.06 0.64 2.73 0 3.22 -0.08 2.49 -0.44z m-46.97 -1.21 c0.08 -0.52 0.36 -3.30 0.60 -6.19 0.56 -7.04 1.49 -10.42 3.42 -12.19 1.29 -1.13 1.69 -1.29 2.94 -1.13 3.02 0.52 4.71 3.42 6.72 11.46 1.93 7.64 1.85 7.36 2.53 7.24 0.93 -0.16 0.72 -4.87 -0.32 -9.01 -2.09 -8.08 -5.79 -12.63 -10.34 -12.63 -3.94 0 -6.88 4.67 -7.76 12.35 -0.40 3.66 0.04 9.45 0.80 10.38 0.72 0.84 1.17 0.76 1.41 -0.28z m40.58 -6.07 c-0.04 -4.22 -0.20 -5.79 -0.88 -7.72 -1.05 -3.02 -1.69 -3.30 -1.73 -0.72 -0.08 2.37 -0.08 1.57 0.24 6.35 0.44 6.27 0.60 7.52 1.21 7.92 0.93 0.68 1.21 -0.76 1.17 -5.83z m-31.49 1.01 c0.04 -3.42 -0.84 -7.84 -1.65 -8.32 -0.36 -0.20 -1.33 1.17 -1.05 1.45 0.08 0.08 0.28 1.81 0.40 3.78 0.32 4.79 0.64 6.72 1.17 7.36 0.72 0.93 1.09 -0.40 1.13 -4.26z m39.29 1.89 c0.32 -6.92 -4.91 -18.86 -9.21 -21.07 -3.90 -2.05 -8.53 2.13 -9.97 8.97 -0.60 2.94 -0.56 11.26 0.08 12.55 0.88 1.77 1.69 1.25 1.77 -1.21 0.32 -7.08 1.41 -12.63 2.94 -14.88 0.36 -0.56 1.01 -1.49 1.37 -2.09 1.01 -1.69 2.61 -1.53 4.38 0.44 0.80 0.88 1.69 2.09 2.01 2.73 1.05 2.01 2.69 7.36 3.58 11.54 1.29 6.35 2.82 7.88 3.06 3.02z m-49.87 -17.45 c1.25 -2.53 3.50 -3.94 6.72 -4.14 2.21 -0.16 2.82 0 4.58 0.97 1.13 0.60 2.53 1.73 3.14 2.49 l1.05 1.41 3.46 -0.28 c1.89 -0.12 5.23 -0.56 7.40 -0.97 3.94 -0.76 3.94 -0.76 5.75 -2.78 2.61 -3.06 6.64 -4.18 9.45 -2.69 1.49 0.76 3.46 0.52 7.20 -0.93 2.53 -0.97 8.85 -3.94 10.86 -5.15 0.56 -0.32 1.45 -0.76 2.01 -1.01 0.97 -0.36 1.89 -0.88 6.68 -3.82 2.01 -1.21 12.02 -9.93 13.07 -11.38 0.32 -0.44 1.81 -2.21 3.34 -3.94 7.64 -8.81 12.95 -18.50 17.78 -32.50 5.43 -15.77 8.41 -31.81 9.85 -52.72 0.24 -3.74 0.48 -21.68 0.52 -42.63 0.08 -34.83 0.12 -36.84 1.21 -52.48 0.97 -14.40 1.09 -17.90 0.93 -30.16 -0.20 -14.92 -0.76 -20.71 -2.90 -31.01 -4.87 -23.29 -17.13 -39.86 -36.64 -49.59 -6.11 -3.06 -12.27 -5.07 -25.30 -8.32 -14.28 -3.58 -18.42 -4.79 -25.14 -7.28 -14.32 -5.35 -25.98 -12.47 -35.75 -21.84 -8.61 -8.28 -14.88 -16.97 -20.55 -28.55 -4.06 -8.24 -6.23 -14.04 -8.37 -22.12 -1.41 -5.35 -1.57 -5.63 -2.49 -5.63 -1.29 0 -2.53 2.41 -3.38 6.52 -1.85 8.69 -0.93 19.67 2.53 31.21 4.63 15.44 15.48 34.71 27.71 49.27 4.63 5.51 5.11 6.80 2.49 6.60 -2.33 -0.20 -8.37 -2.41 -14.28 -5.31 -13.27 -6.43 -24.69 -16.05 -33.46 -28.07 -4.26 -5.83 -5.27 -5.23 -4.50 2.69 1.93 20.31 13.51 40.06 31.41 53.49 2.13 1.61 3.98 3.14 4.06 3.46 0.12 0.28 0 0.84 -0.28 1.21 -0.44 0.60 -0.72 0.60 -4.26 0 -9.85 -1.65 -21.36 -5.99 -31.57 -11.78 -4.54 -2.57 -11.46 -7.16 -16.29 -10.74 -5.19 -3.90 -5.79 -3.90 -5.95 -0.12 -0.28 6.23 2.94 14.28 8.89 22.28 2.73 3.66 10.82 11.66 15.56 15.48 7.08 5.59 15.44 11.02 23.25 15.04 4.30 2.21 5.11 3.18 3.66 4.34 -0.88 0.72 -1.45 0.76 -7.60 0.56 -3.74 -0.12 -7.96 -0.52 -9.65 -0.88 -8.32 -1.81 -17.66 -5.99 -24.53 -11.06 -2.09 -1.57 -4.22 -3.10 -4.71 -3.46 -0.52 -0.36 -1.21 -0.52 -1.57 -0.40 -1.69 0.64 1.41 8.20 5.35 13.11 7 8.73 20.83 18.82 34.10 24.93 3.22 1.49 3.42 1.65 3.42 2.82 0 0.72 -0.36 2.65 -0.80 4.34 -1.93 7.68 -4.38 23.69 -5.07 33.46 l-0.28 3.82 4.42 -4.30 c6.60 -6.39 11.38 -9.13 18.94 -10.78 9.25 -2.05 18.66 0 26.83 5.79 3.18 2.29 8.85 8.24 11.14 11.78 12.71 19.14 16.37 50.55 9.73 83.13 -3.18 15.64 -10.01 35.03 -13.27 37.60 -0.68 0.52 -1.65 0.84 -2.65 0.84 -2.13 0 -3.66 -1.57 -4.54 -4.58 -0.56 -1.93 -0.80 -2.29 -1.53 -2.17 -0.72 0.12 -1.25 1.33 -3.50 7.96 -3.90 11.50 -8.81 22.36 -11.66 25.82 -2.33 2.82 -5.79 2.33 -7.24 -1.01 -0.68 -1.57 -1.61 -5.87 -2.21 -10.42 -0.28 -2.29 -1.17 -2.57 -1.73 -0.60 -2.01 7 -9.49 20.63 -12.55 22.80 -1.69 1.21 -3.30 1.41 -4.79 0.60 -2.17 -1.09 -2.53 -2.61 -2.78 -11.34 -0.12 -4.26 -0.32 -7.76 -0.48 -7.76 -0.52 0 -1.09 0.93 -3.22 5.59 -1.17 2.49 -2.90 5.99 -3.86 7.72 -1.61 2.90 -1.77 3.46 -1.77 5.91 0.04 10.74 6.92 20.87 18.22 26.83 7.96 4.18 18.42 6.47 30.28 6.60 l5.23 0.04 0.88 -1.81z m-71.31 -17.17 c10.50 -10.66 19.22 -25.62 25.18 -43.15 0.88 -2.61 1.05 -2.82 2.25 -2.94 l1.25 -0.12 0.16 14 c0.08 7.68 0.32 14.32 0.48 14.72 0.24 0.48 0.68 0.68 1.41 0.60 3.10 -0.36 10.62 -14.64 14.12 -26.87 1.49 -5.15 2.09 -6.11 3.58 -5.95 1.05 0.12 1.05 0.12 1.89 8.12 1.01 9.21 1.61 12.55 2.41 13.83 1.29 1.97 2.41 0.80 5.71 -5.75 4.63 -9.29 9.17 -22.08 11.78 -33.02 0.72 -3.10 1.49 -5.83 1.69 -6.07 0.20 -0.28 0.80 -0.52 1.33 -0.52 1.09 0 1.09 0 1.77 5.95 0.48 4.54 1.73 9.93 2.49 10.82 0.24 0.32 0.84 0.52 1.29 0.44 2.65 -0.36 10.54 -23.49 13.47 -39.53 2.05 -11.10 2.25 -13.51 2.25 -26.95 0 -11.54 -0.08 -13.47 -0.93 -18.66 -3.86 -23.97 -13.35 -39.86 -27.67 -46.33 -4.14 -1.89 -6.64 -2.37 -12.23 -2.37 -6.15 0 -9.05 0.64 -13.88 3.02 -12.99 6.31 -21.96 20.15 -27.55 42.27 -4.58 18.10 -6.11 29.52 -6.64 49.63 -0.28 10.42 -0.93 15.08 -3.62 26.34 -1.73 7.24 -2.73 11.18 -8.04 30.77 -1.25 4.54 -2.82 10.98 -3.50 14.28 -1.17 5.47 -1.29 6.72 -1.25 13.27 0 6.15 0.12 7.72 0.84 10.46 0.97 3.54 1.85 4.63 3.82 4.63 1.05 0 1.97 -0.76 6.11 -4.91z m221.16 -185.72 c0 -1.73 -0.24 -2.61 -1.13 -4.10 -2.21 -3.78 -7.68 -7.88 -12.71 -9.57 -3.62 -1.21 -15.60 -4.02 -17.17 -4.02 -1.13 0 -1.33 0.16 -1.33 0.97 0 0.84 0.28 1.01 2.33 1.41 5.63 1.09 15.04 3.66 17.41 4.71 6.15 2.78 10.70 7.92 11.10 12.67 l0.24 2.49 0.60 -1.17 c0.32 -0.64 0.60 -2.17 0.64 -3.38z"/>
  <path d="M193.57 189.54 c-1.25 -0.24 -2.53 -1.97 -2.53 -3.42 0 -1.61 1.69 -3.14 3.46 -3.14 1.89 0 2.98 1.17 2.98 3.18 0 1.29 -0.24 1.77 -1.25 2.61 -0.68 0.56 -1.37 1.01 -1.49 1.01 -0.16 -0.04 -0.68 -0.16 -1.17 -0.24z"/>
  <path d="M185.48 182.06 c-1.13 -1.17 -1.17 -3.50 -0.16 -4.42 1.21 -1.09 3.50 -0.88 4.50 0.40 2.33 2.98 -1.77 6.76 -4.34 4.02z"/>
  <path d="M197.27 180.62 c-3.26 -1.45 -5.27 -4.75 -6.52 -10.62 -0.93 -4.18 -1.05 -17.70 -0.20 -20.11 1.29 -3.62 3.66 -5.15 8.08 -5.23 2.78 -0.08 3.30 0.04 4.79 1.05 3.66 2.41 5.23 6.72 5.59 15.16 0.40 10.13 -2.05 17.33 -6.76 19.71 -1.89 1.01 -2.94 1.01 -4.99 0.04z"/>
  <path d="M181.42 173.10 c-1.77 -2.25 -0.68 -5.23 2.05 -5.63 1.21 -0.20 1.65 -0.08 2.49 0.76 2.17 2.17 0.80 5.91 -2.17 5.91 -1.21 0 -1.73 -0.24 -2.37 -1.05z"/>
  <path d="M117.19 349.09 c-1.29 -0.52 -3.58 -3.42 -4.14 -5.27 -1.21 -3.98 -1.41 -14.20 -0.32 -15.52 0.20 -0.28 1.09 -0.52 1.93 -0.52 l1.57 0 0 6.15 c0 4.38 0.16 6.76 0.60 8.24 0.68 2.21 1.97 3.46 3.30 3.22 1.85 -0.36 4.79 -7.12 5.95 -13.83 0.28 -1.69 0.68 -3.22 0.93 -3.46 0.20 -0.20 1.01 -0.32 1.73 -0.24 1.29 0.12 1.37 0.20 1.49 1.89 0.28 3.98 -2.45 13.19 -4.91 16.57 -0.76 1.01 -2.01 2.13 -2.78 2.49 -1.49 0.72 -3.94 0.84 -5.35 0.28z"/>
  <path d="M93.10 345.71 c-3.38 -1.49 -4.87 -6.15 -4.83 -15.36 0 -4.22 0.40 -4.99 2.45 -4.99 1.05 0 1.37 0.16 1.37 0.72 0.20 12.27 0.20 12.79 0.93 14.08 0.88 1.61 2.45 2.45 3.42 1.81 1.89 -1.17 3.18 -5.31 3.54 -11.38 0.32 -4.79 0.72 -5.63 2.86 -5.63 l1.33 0 0 3.38 c0 5.91 -1.69 13.15 -3.58 15.40 -1.93 2.29 -4.95 3.10 -7.48 1.97z"/>
  <path d="M132.72 319.85 c-3.22 -1.17 -4.67 -2.82 -5.83 -6.60 -0.36 -1.33 -0.80 -5.07 -1.05 -9.53 -0.40 -6.80 -0.36 -7.44 0.28 -8.16 0.76 -0.84 2.78 -1.05 3.26 -0.24 0.16 0.24 0.24 1.57 0.20 2.90 -0.16 3.22 0.60 10.74 1.37 13.43 0.32 1.17 1.05 2.57 1.57 3.10 3.58 3.54 7 -3.46 7.04 -14.36 0 -3.34 0.16 -3.58 2.45 -3.58 1.57 0 1.73 0.84 1.49 7.16 -0.24 5.99 -1.17 9.89 -2.90 12.51 -1.85 2.73 -5.39 4.26 -7.88 3.38z"/>
  <path d="M109.79 318.04 c-2.17 -1.17 -4.14 -4.18 -4.83 -7.32 -0.24 -1.13 -0.56 -5.51 -0.68 -9.77 -0.28 -8.41 -0.16 -8.97 1.85 -8.97 1.81 0 2.05 0.60 2.05 5.19 0 7.52 0.64 13.15 1.69 15.04 1.73 3.14 3.94 2.21 5.43 -2.29 0.44 -1.45 0.68 -3.74 0.72 -7.96 0.08 -6.60 0.32 -7.28 2.37 -7.08 1.05 0.12 1.25 0.32 1.57 1.73 0.44 2.05 -0.28 11.70 -1.13 14.88 -1.65 6.27 -4.99 8.69 -9.05 6.56z"/>
  <path d="M84.54 312.93 c-3.02 -1.93 -4.06 -5.87 -4.38 -16.41 l-0.24 -7.32 1.05 -0.24 c0.56 -0.16 1.45 -0.20 1.93 -0.12 l0.97 0.12 0.24 8.24 c0.32 10.58 0.80 12.07 3.74 12.07 2.57 0 5.47 -7.44 5.47 -14 0 -2.78 0.48 -3.42 2.49 -3.22 l1.33 0.12 -0.04 4.22 c-0.04 7.24 -2.45 13.59 -6.03 16.05 -1.93 1.33 -4.79 1.53 -6.52 0.48z"/>
  <path d="M141.69 287.76 c-3.26 -1.97 -6.07 -7.64 -7.96 -16.09 -1.29 -5.63 -1.81 -13.11 -1.01 -14.08 0.60 -0.72 2.57 -0.80 3.10 -0.08 0.24 0.24 0.60 2.86 0.84 5.71 1.05 12.31 5.83 23.33 8.61 19.91 2.29 -2.82 2.98 -13.92 1.29 -21.32 -0.72 -3.34 -0.44 -4.02 1.69 -4.02 1.73 0 2.05 0.60 2.78 5.51 1.13 7.44 0.60 16.57 -1.21 20.87 -1.09 2.65 -3.46 4.58 -5.51 4.58 -0.52 0 -1.69 -0.44 -2.61 -1.01z"/>
  <path d="M91.98 283.73 c-4.67 -1.65 -5.99 -5.99 -6.07 -19.71 0 -7.44 0.48 -12.23 1.45 -13.35 0.64 -0.76 3.42 -0.68 3.70 0.12 0.12 0.36 0.04 1.85 -0.24 3.34 -0.68 3.58 -0.68 15.16 0.04 18.74 0.28 1.57 0.93 3.70 1.37 4.75 0.72 1.77 0.88 1.93 2.05 1.81 0.88 -0.08 1.49 -0.52 2.13 -1.49 1.89 -2.78 3.58 -10.50 4.02 -18.26 0.28 -4.75 0.52 -5.23 2.57 -5.03 1.77 0.16 1.93 0.97 1.49 7.16 -0.84 12.07 -4.34 20.91 -8.77 22.12 -1.77 0.48 -1.85 0.48 -3.74 -0.20z"/>
  <path d="M115.87 282.89 c-2.49 -2.05 -4.63 -8.37 -5.87 -17.05 -0.72 -5.19 -0.76 -9.73 -0.12 -10.38 0.28 -0.28 1.09 -0.48 1.81 -0.48 1.61 0 2.13 0.84 2.13 3.58 0 1.09 0.28 4.14 0.60 6.76 1.33 9.89 3.42 15.24 5.47 13.96 1.85 -1.13 2.90 -8.41 2.37 -16.45 -0.36 -5.47 -0.08 -6.23 2.21 -6.23 0.88 0 1.41 0.24 1.61 0.72 0.12 0.36 0.36 3.66 0.48 7.32 0.32 9.89 -0.88 15.24 -4.14 18.10 -1.89 1.65 -4.71 1.73 -6.56 0.16z"/>
 </g>
</svg>